M48
;Layer_Color=9474304
;FILE_FORMAT=2:5
INCH,LZ
;TYPE=PLATED
T1F00S00C0.02362
T2F00S00C0.02500
T3F00S00C0.03150
T4F00S00C0.03600
%
T01
X04695Y01765
X05305Y0258
Y0268
X0399Y02665
Y02565
X04595Y01765
X0456Y039
X0466
T02
X0479Y0236
X0478Y0269
Y0299
X04485Y02985
Y02685
X0449Y0236
X0465Y0319
Y0349
T03
X04695Y0201
X05045Y02875
Y02925
Y02975
X0418Y0298
Y0303
Y0293
X04595Y0201
X04645
X0465Y0368
X046
X047
T04
X0559378Y0181846
Y0191846
Y0201846
Y0211846
Y0221846
Y0231846
Y0241846
Y0251846
Y0267752
Y0277752
Y0287752
Y0297752
Y0307752
X0366858Y0311531
Y0301532
Y0291531
Y0281532
Y0271532
Y0261531
Y0251532
Y0231768
Y0221768
Y0211768
Y0201768
Y0191768
Y0181768
Y0321532
X0559378Y0317752
Y0327752
Y0337752
Y0347752
Y0357752
M30
